<svg xmlns="http://www.w3.org/2000/svg" xmlns:xlink="http://www.w3.org/1999/xlink" viewBox="0,0,256,256" width="192px" height="192px"><g fill="#ffffff" fill-rule="nonzero" stroke="none" stroke-width="1" stroke-linecap="butt" stroke-linejoin="miter" stroke-miterlimit="10" stroke-dasharray="" stroke-dashoffset="0" font-family="none" font-weight="none" font-size="none" text-anchor="none" style="mix-blend-mode: normal"><g transform="scale(5.33333,5.33333)"><path d="M3.986,41.658v-35.319c0,-1.291 1.049,-2.34 2.34,-2.34h35.321c1.291,0 2.34,1.049 2.34,2.34v35.319c0,1.291 -1.049,2.34 -2.34,2.34h-35.321c-1.291,0 -2.34,-1.049 -2.34,-2.34zM15.995,37.998v-19.999h-6.001v19.999zM24.995,37.998v-11.5c0,-1.931 1.569,-3.5 3.5,-3.5c1.931,0 3.5,1.569 3.5,3.5l-0.001,11.499h6.001v-12.999c0,-3.861 -3.139,-7 -7,-7c-2.545,0 -4.775,1.363 -6.001,3.397l0.001,-3.396h-6.001v19.999zM15.995,12.998c0,-1.656 -1.344,-3.001 -3,-3.001c-1.656,0 -3,1.345 -3,3.001c0,1.656 1.344,3.001 3,3.001c1.656,0 3,-1.345 3,-3.001zM7.926,7.934c2.133,-0.213 5.756,-0.895 5.713,-1.348c-0.058,-0.58 -4.798,-0.615 -6.709,-0.576c-0.551,0.039 -0.969,0.511 -0.935,1.056c0,0.019 -0.004,0.916 -0.003,0.933c-0.033,2.013 0.024,5.591 0.587,5.647c0.452,0.044 1.134,-3.579 1.347,-5.712zM23.994,47.005c8.836,0 16.008,0.225 16.008,0.501c0,0.276 -7.172,0.501 -16.008,0.501c-8.836,0 -16.008,-0.225 -16.008,-0.501c0,-0.276 7.172,-0.501 16.008,-0.501z"></path></g></g></svg>