<svg xmlns="http://www.w3.org/2000/svg" xmlns:xlink="http://www.w3.org/1999/xlink" width="1000" zoomAndPan="magnify" viewBox="0 0 375 374.999991" height="500" preserveAspectRatio="xMidYMid meet" version="1.0"><defs><g/><clipPath id="6a63e5c02c"><path d="M 63.867188 157.941406 L 256.523438 157.941406 L 256.523438 263.691406 L 63.867188 263.691406 Z M 63.867188 157.941406 " clip-rule="nonzero"/></clipPath></defs><g fill="#ffffff" fill-opacity="1"><g transform="translate(73.377941, 216.059379)"><g><path d="M 3.046875 -88.765625 L 26.421875 -88.765625 L 73.546875 -23.015625 L 73.421875 -80.609375 C 73.421875 -83.859375 72.707031 -85.765625 71.28125 -86.328125 C 69.863281 -86.898438 67.738281 -87.1875 64.90625 -87.1875 L 64.90625 -88.765625 L 83.65625 -88.765625 L 83.65625 -87.1875 C 80.894531 -87.1875 78.800781 -86.921875 77.375 -86.390625 C 75.957031 -85.859375 75.164062 -84.132812 75 -81.21875 L 75.125 0 L 73.546875 0 L 17.171875 -78.65625 L 17.171875 -8.15625 C 17.171875 -4.90625 17.898438 -2.992188 19.359375 -2.421875 C 20.816406 -1.859375 22.96875 -1.578125 25.8125 -1.578125 L 25.8125 0 L 6.9375 0 L 6.9375 -1.578125 C 9.863281 -1.578125 12.035156 -1.859375 13.453125 -2.421875 C 14.878906 -2.992188 15.59375 -4.90625 15.59375 -8.15625 L 15.59375 -80.859375 C 14.125 -83.285156 12.351562 -84.945312 10.28125 -85.84375 C 8.21875 -86.738281 5.804688 -87.1875 3.046875 -87.1875 Z M 3.046875 -88.765625 "/></g></g></g><g fill="#ffffff" fill-opacity="1"><g transform="translate(160.069494, 216.059379)"><g><path d="M 48.703125 1.46875 C 40.347656 1.46875 32.960938 -0.414062 26.546875 -4.1875 C 20.128906 -7.96875 15.113281 -13.164062 11.5 -19.78125 C 7.894531 -26.394531 6.09375 -33.96875 6.09375 -42.5 C 6.09375 -49.070312 7.066406 -55.238281 9.015625 -61 C 10.960938 -66.769531 13.800781 -71.84375 17.53125 -76.21875 C 21.269531 -80.601562 25.796875 -84.015625 31.109375 -86.453125 C 36.429688 -88.890625 42.457031 -90.109375 49.1875 -90.109375 C 53.082031 -90.109375 56.328125 -89.660156 58.921875 -88.765625 C 61.523438 -87.867188 63.71875 -86.972656 65.5 -86.078125 C 67.289062 -85.191406 68.835938 -84.75 70.140625 -84.75 C 70.867188 -84.75 71.597656 -85.007812 72.328125 -85.53125 C 73.054688 -86.0625 73.421875 -87.140625 73.421875 -88.765625 L 75 -88.765625 L 75 -58.203125 L 73.546875 -58.203125 C 73.546875 -68.429688 71.472656 -75.816406 67.328125 -80.359375 C 63.191406 -84.910156 57.515625 -87.1875 50.296875 -87.1875 C 44.847656 -87.1875 39.890625 -85.722656 35.421875 -82.796875 C 30.960938 -79.878906 27.394531 -75.535156 24.71875 -69.765625 C 22.039062 -64.003906 20.703125 -56.863281 20.703125 -48.34375 C 20.703125 -39.894531 22.039062 -32.40625 24.71875 -25.875 C 27.394531 -19.34375 31.269531 -14.25 36.34375 -10.59375 C 41.414062 -6.9375 47.441406 -5.109375 54.421875 -5.109375 C 60.273438 -5.109375 65.085938 -6.40625 68.859375 -9 C 72.628906 -11.601562 75.40625 -14.992188 77.1875 -19.171875 C 78.976562 -23.359375 79.875 -27.847656 79.875 -32.640625 L 81.46875 -32.640625 C 81.46875 -28.410156 80.835938 -24.265625 79.578125 -20.203125 C 78.316406 -16.148438 76.347656 -12.476562 73.671875 -9.1875 C 70.992188 -5.90625 67.601562 -3.304688 63.5 -1.390625 C 59.40625 0.515625 54.472656 1.46875 48.703125 1.46875 Z M 48.703125 1.46875 "/></g></g></g><g clip-path="url(#6a63e5c02c)"><path fill="#ffffff" d="M 223.027344 216.386719 C 224.199219 216.730469 225.410156 216.992188 226.640625 217.167969 C 227.855469 217.339844 229.09375 217.425781 230.34375 217.425781 C 237.558594 217.425781 244.097656 214.503906 248.824219 209.773438 C 253.554688 205.042969 256.480469 198.507812 256.480469 191.292969 C 256.480469 184.074219 253.554688 177.539062 248.824219 172.808594 C 244.097656 168.078125 237.558594 165.15625 230.34375 165.15625 C 226.332031 165.15625 222.53125 166.0625 219.128906 167.675781 C 215.601562 169.355469 212.503906 171.804688 210.0625 174.804688 C 202.667969 183.765625 196.644531 193.171875 190.625 202.566406 C 178.21875 221.929688 165.828125 241.265625 141.617188 256.371094 C 139.40625 257.578125 137.09375 258.625 134.703125 259.503906 C 129.160156 261.535156 123.167969 262.644531 116.914062 262.644531 C 102.640625 262.644531 89.71875 256.859375 80.363281 247.503906 C 71.011719 238.148438 65.226562 225.226562 65.226562 210.953125 C 65.226562 196.679688 71.011719 183.757812 80.363281 174.402344 C 89.214844 165.554688 101.253906 159.902344 114.613281 159.316406 C 113.5625 160.074219 112.875 161.3125 112.875 162.707031 C 112.875 165.019531 114.75 166.894531 117.0625 166.894531 C 119.375 166.894531 121.246094 165.019531 121.246094 162.707031 C 121.246094 160.695312 119.824219 159.015625 117.933594 158.613281 L 117.945312 157.957031 L 116.917969 157.945312 C 102.28125 157.945312 89.027344 163.878906 79.433594 173.472656 C 69.839844 183.0625 63.90625 196.316406 63.90625 210.957031 C 63.90625 225.59375 69.839844 238.847656 79.433594 248.441406 C 89.027344 258.03125 102.277344 263.964844 116.917969 263.964844 C 123.324219 263.964844 129.46875 262.828125 135.160156 260.746094 C 141.054688 258.582031 146.460938 255.40625 151.164062 251.421875 C 169.976562 237.238281 180.847656 220.273438 191.734375 203.285156 C 197.738281 193.910156 203.746094 184.53125 211.082031 175.644531 L 210.574219 175.226562 L 211.085938 175.640625 C 213.402344 172.792969 216.339844 170.46875 219.695312 168.875 C 222.917969 167.339844 226.53125 166.480469 230.347656 166.480469 C 237.199219 166.480469 243.40625 169.257812 247.894531 173.746094 C 252.386719 178.238281 255.164062 184.445312 255.164062 191.296875 C 255.164062 198.152344 252.386719 204.355469 247.894531 208.847656 C 243.40625 213.339844 237.199219 216.117188 230.347656 216.117188 C 229.144531 216.117188 227.96875 216.03125 226.828125 215.871094 C 225.652344 215.703125 224.503906 215.453125 223.394531 215.132812 L 223.03125 216.394531 Z M 223.027344 216.386719 " fill-opacity="1" fill-rule="nonzero"/></g><g fill="#ffffff" fill-opacity="1"><g transform="translate(178.79387, 219.434378)"><g><path d="M 3.96875 -33.296875 L 3.96875 -35.015625 L 50.09375 -96.34375 L 69.25 -96.34375 C 69.164062 -96.34375 68.019531 -95.238281 65.8125 -93.03125 C 63.613281 -90.832031 60.6875 -87.90625 57.03125 -84.25 C 53.375 -80.59375 49.363281 -76.582031 45 -72.21875 C 40.632812 -67.863281 36.289062 -63.503906 31.96875 -59.140625 C 27.65625 -54.773438 23.691406 -50.765625 20.078125 -47.109375 C 16.472656 -43.453125 13.566406 -40.519531 11.359375 -38.3125 C 9.160156 -36.113281 8.0625 -35.015625 8.0625 -35.015625 L 44.796875 -35.015625 L 44.796875 -65.15625 L 58.015625 -65.15625 L 58.015625 -35.015625 L 66.46875 -35.015625 L 66.34375 -33.296875 L 58.015625 -33.296875 L 58.015625 -8.859375 C 58.015625 -5.859375 58.785156 -3.914062 60.328125 -3.03125 C 61.867188 -2.15625 64.179688 -1.71875 67.265625 -1.71875 L 67.265625 0 L 35.546875 0 L 35.546875 -1.71875 C 38.628906 -1.71875 40.941406 -2.15625 42.484375 -3.03125 C 44.023438 -3.914062 44.796875 -5.859375 44.796875 -8.859375 L 44.796875 -33.296875 Z M 3.96875 -33.296875 "/></g></g></g><g fill="#ffffff" fill-opacity="1"><g transform="translate(250.678372, 219.434378)"><g><path d="M 5.015625 -67.796875 L 3.296875 -67.796875 L 13.34375 -96.46875 L 66.734375 -96.46875 L 38.59375 -11.765625 C 37.175781 -7.535156 36.910156 -4.800781 37.796875 -3.5625 C 38.679688 -2.332031 41.320312 -1.71875 45.71875 -1.71875 L 45.71875 0 L 12.15625 0 L 12.15625 -1.71875 L 15.46875 -1.71875 C 17.132812 -1.71875 18.847656 -2.289062 20.609375 -3.4375 C 22.378906 -4.582031 24.007812 -7.050781 25.5 -10.84375 L 57.09375 -90.65625 L 38.59375 -90.65625 C 33.75 -90.65625 29.648438 -90.300781 26.296875 -89.59375 C 22.953125 -88.894531 20.066406 -87.6875 17.640625 -85.96875 C 15.222656 -84.25 13.039062 -81.910156 11.09375 -78.953125 C 9.15625 -76.003906 7.128906 -72.285156 5.015625 -67.796875 Z M 5.015625 -67.796875 "/></g></g></g></svg>