<svg xmlns="http://www.w3.org/2000/svg" xmlns:xlink="http://www.w3.org/1999/xlink" viewBox="0,0,256,256" width="128px" height="128px"><g fill="#ffffff" fill-rule="nonzero" stroke="none" stroke-width="1" stroke-linecap="butt" stroke-linejoin="miter" stroke-miterlimit="10" stroke-dasharray="" stroke-dashoffset="0" font-family="none" font-weight="none" font-size="none" text-anchor="none" style="mix-blend-mode: normal"><g transform="scale(8,8)"><path d="M27.816,27.422l-9.069,-12.803l8.381,-9.224c0.546,-0.6 0.482,-1.512 -0.142,-2.038c-0.623,-0.526 -1.57,-0.464 -2.116,0.136l-7.869,8.66l-3.329,-4.699c-0.32,-0.452 -0.943,-0.557 -1.395,-0.238c-0.45,0.319 -0.558,0.943 -0.238,1.395l13.027,18.389h-3.549l-15.583,-22h3.55l0.694,0.981c0.319,0.451 0.944,0.557 1.395,0.238c0.45,-0.319 0.557,-0.943 0.238,-1.395l-0.994,-1.403c-0.188,-0.263 -0.493,-0.421 -0.817,-0.421h-6c-0.374,0 -0.717,0.209 -0.889,0.542c-0.171,0.332 -0.143,0.731 0.073,1.037l9.068,12.802l-8.381,9.224c-0.546,0.6 -0.482,1.512 0.142,2.038c0.284,0.239 0.635,0.357 0.986,0.357c0.418,0 0.833,-0.167 1.13,-0.494l7.869,-8.66l6.186,8.733c0.187,0.264 0.492,0.421 0.816,0.421h6c0.374,0 0.717,-0.209 0.889,-0.541c0.171,-0.332 0.143,-0.731 -0.073,-1.037z"></path></g></g></svg>